<svg width="760" height="712" viewBox="0 0 760 712" fill="none" xmlns="http://www.w3.org/2000/svg">
<rect width="760" height="712" rx="20" fill="url(#paint0_linear_10_144)"/>
<path d="M301.688 649.888C301.72 650.208 301.688 650.512 301.592 650.8C301.528 650.992 301.432 651.152 301.304 651.28C301.208 651.408 301.08 651.536 300.92 651.664C300.632 651.856 300.28 652.032 299.864 652.192C299.608 652.256 299.352 652.304 299.096 652.336C298.872 652.4 298.632 652.4 298.376 652.336C297.864 652.304 297.416 652.112 297.032 651.76C296.488 651.312 296.04 650.816 295.688 650.272C295.528 650.016 295.352 649.728 295.16 649.408C294.968 649.088 294.792 648.752 294.632 648.4L289.304 638.272C289.048 638.272 288.792 638.288 288.536 638.32C288.28 638.32 288.024 638.336 287.768 638.368C287.096 638.432 286.456 638.448 285.848 638.416C285.272 638.384 284.664 638.384 284.024 638.416H283.112V647.104C283.112 647.36 283.096 647.6 283.064 647.824C283.064 648.048 283.064 648.288 283.064 648.544C283.064 648.704 283.048 648.912 283.016 649.168C283.016 649.424 283 649.664 282.968 649.888C282.904 650.24 282.76 650.608 282.536 650.992C282.312 651.344 282.008 651.648 281.624 651.904C280.952 652.32 280.136 652.432 279.176 652.24C278.76 652.144 278.36 651.984 277.976 651.76C277.848 651.664 277.736 651.552 277.64 651.424C277.544 651.264 277.464 651.104 277.4 650.944C277.336 650.784 277.272 650.624 277.208 650.464C277.176 650.272 277.128 650.096 277.064 649.936C276.968 649.616 276.92 649.312 276.92 649.024V621.76C276.92 621.568 276.92 621.376 276.92 621.184C276.952 620.96 276.984 620.768 277.016 620.608C277.048 620.256 277.16 619.904 277.352 619.552C277.448 619.168 277.608 618.896 277.832 618.736C278.024 618.544 278.312 618.384 278.696 618.256C279.112 618.096 279.704 618.032 280.472 618.064C281.912 618.096 283.336 618.112 284.744 618.112C286.152 618.112 287.56 618.144 288.968 618.208C289.896 618.272 290.872 618.384 291.896 618.544C292.952 618.672 293.928 618.912 294.824 619.264C295.4 619.488 295.928 619.712 296.408 619.936C297.016 620.288 297.496 620.624 297.848 620.944C298.968 621.968 299.816 623.2 300.392 624.64C300.968 626.08 301.256 627.536 301.256 629.008C301.256 630.736 300.84 632.32 300.008 633.76C299.208 635.2 297.912 636.272 296.12 636.976C296.056 637.04 295.96 637.088 295.832 637.12C295.736 637.12 295.656 637.136 295.592 637.168L300.008 646.048L300.44 646.816C300.504 646.944 300.584 647.088 300.68 647.248C300.776 647.408 300.856 647.568 300.92 647.728C301.016 647.888 301.096 648.064 301.16 648.256C301.256 648.448 301.352 648.624 301.448 648.784C301.544 649.232 301.624 649.6 301.688 649.888ZM289.688 632.8C290.264 632.8 290.808 632.704 291.32 632.512C291.864 632.288 292.344 632 292.76 631.648C293.208 631.296 293.576 630.896 293.864 630.448C294.152 629.968 294.312 629.456 294.344 628.912C294.472 627.312 294.056 626.128 293.096 625.36C292.136 624.56 290.872 624.128 289.304 624.064C288.376 624 287.352 623.968 286.232 623.968C285.144 623.968 284.104 623.968 283.112 623.968C283.144 625.28 283.144 626.624 283.112 628C283.112 629.344 283.112 630.944 283.112 632.8H289.688ZM307.049 646.912L307.097 643.12L307.145 636.064C307.177 635.04 307.193 633.984 307.193 632.896C307.193 631.808 307.193 630.688 307.193 629.536C307.193 628.384 307.193 627.36 307.193 626.464C307.193 625.568 307.225 624.56 307.289 623.44V623.248C307.321 622.928 307.337 622.608 307.337 622.288C307.369 621.936 307.385 621.584 307.385 621.232C307.417 620.656 307.593 620.032 307.913 619.36C308.137 618.912 308.473 618.528 308.921 618.208C309.433 617.952 309.929 617.824 310.409 617.824C310.665 617.824 310.889 617.84 311.081 617.872C311.305 617.872 311.513 617.888 311.705 617.92C312.121 617.984 312.489 618.176 312.809 618.496C313.001 618.656 313.177 618.912 313.337 619.264C313.401 619.456 313.449 619.648 313.481 619.84C313.545 620 313.593 620.176 313.625 620.368C313.657 620.592 313.673 620.8 313.673 620.992C313.705 621.184 313.721 621.376 313.721 621.568C313.721 621.792 313.705 622 313.673 622.192C313.673 622.352 313.673 622.528 313.673 622.72V623.536L313.385 648.448V648.928C313.385 649.024 313.369 649.152 313.337 649.312C313.337 649.44 313.321 649.6 313.289 649.792C313.225 649.952 313.161 650.128 313.097 650.32C313.065 650.48 313.017 650.656 312.953 650.848C312.857 651.008 312.745 651.168 312.617 651.328C312.521 651.456 312.393 651.584 312.233 651.712C311.977 651.968 311.561 652.144 310.985 652.24C310.121 652.432 309.305 652.352 308.537 652C308.153 651.744 307.881 651.424 307.721 651.04C307.625 650.944 307.577 650.848 307.577 650.752C307.545 650.688 307.513 650.64 307.481 650.608C307.449 650.576 307.417 650.528 307.385 650.464C307.321 650.304 307.273 650.144 307.241 649.984C307.209 649.792 307.193 649.6 307.193 649.408C307.161 649.248 307.129 649.088 307.097 648.928C307.097 648.768 307.081 648.608 307.049 648.448C307.017 648.192 307.017 647.92 307.049 647.632V646.912ZM343.878 638.032C344.038 638.48 344.15 638.992 344.214 639.568C344.31 640.112 344.358 640.672 344.358 641.248C344.358 641.824 344.31 642.4 344.214 642.976C344.15 643.52 344.054 644 343.926 644.416C343.414 646.208 342.39 647.712 340.854 648.928C339.318 650.112 337.558 650.976 335.574 651.52C333.622 652.064 331.59 652.256 329.478 652.096C327.398 651.936 325.542 651.408 323.91 650.512C322.886 649.936 322.006 649.232 321.27 648.4C320.534 647.568 319.91 646.64 319.398 645.616C319.206 645.264 319.078 644.864 319.014 644.416C318.982 643.936 319.03 643.488 319.158 643.072C319.286 642.624 319.494 642.24 319.782 641.92C320.07 641.568 320.47 641.328 320.982 641.2C321.302 641.136 321.654 641.104 322.038 641.104C322.454 641.104 322.854 641.168 323.238 641.296C323.622 641.392 323.974 641.568 324.294 641.824C324.614 642.048 324.87 642.368 325.062 642.784C325.414 643.456 325.91 644.08 326.55 644.656C327.222 645.2 327.926 645.648 328.662 646C329.718 646.352 330.774 646.496 331.83 646.432C332.918 646.368 333.894 646.128 334.758 645.712C335.654 645.296 336.374 644.736 336.918 644.032C337.462 643.296 337.734 642.464 337.734 641.536C337.734 640.768 337.622 640.144 337.398 639.664C337.174 639.152 336.854 638.736 336.438 638.416C336.054 638.064 335.574 637.776 334.998 637.552C334.454 637.328 333.846 637.136 333.174 636.976C332.406 636.816 331.622 636.704 330.822 636.64C330.054 636.576 329.27 636.496 328.47 636.4C327.67 636.304 326.886 636.176 326.118 636.016C325.35 635.856 324.598 635.616 323.862 635.296C322.39 634.688 321.27 633.76 320.502 632.512C319.734 631.264 319.27 629.92 319.11 628.48C318.982 627.04 319.158 625.616 319.638 624.208C320.118 622.768 320.886 621.536 321.942 620.512C322.966 619.584 324.182 618.928 325.59 618.544C327.03 618.128 328.614 617.888 330.342 617.824C331.302 617.792 332.262 617.824 333.222 617.92C334.214 618.016 335.158 618.176 336.054 618.4C336.982 618.624 337.83 618.912 338.598 619.264C339.398 619.616 340.086 620.032 340.662 620.512C341.078 620.832 341.494 621.264 341.91 621.808C342.326 622.32 342.646 622.88 342.87 623.488C343.094 624.064 343.158 624.624 343.062 625.168C342.998 625.712 342.662 626.176 342.054 626.56C341.542 626.88 341.046 627.024 340.566 626.992C340.118 626.928 339.686 626.784 339.27 626.56C338.854 626.304 338.454 626.016 338.07 625.696C337.686 625.376 337.334 625.088 337.014 624.832C336.15 624.192 335.078 623.76 333.798 623.536C332.518 623.312 331.318 623.264 330.198 623.392C329.494 623.488 328.838 623.648 328.23 623.872C327.622 624.096 327.094 624.4 326.646 624.784C326.23 625.168 325.894 625.648 325.638 626.224C325.414 626.768 325.334 627.392 325.398 628.096C325.43 628.608 325.574 629.04 325.83 629.392C326.118 629.744 326.454 630.032 326.838 630.256C327.254 630.48 327.702 630.656 328.182 630.784C328.662 630.912 329.142 631.008 329.622 631.072C331.062 631.264 332.502 631.408 333.942 631.504C335.382 631.6 336.79 631.92 338.166 632.464C339.574 633.008 340.774 633.744 341.766 634.672C342.758 635.6 343.462 636.72 343.878 638.032ZM371.449 648.544C371.705 649.024 371.721 649.504 371.497 649.984C371.337 650.496 371.065 650.88 370.681 651.136C370.489 651.296 370.313 651.44 370.153 651.568C369.993 651.664 369.817 651.744 369.625 651.808C369.273 652 368.857 652.064 368.377 652C368.185 652 368.009 651.968 367.849 651.904C367.689 651.84 367.529 651.76 367.369 651.664C367.209 651.568 367.033 651.472 366.841 651.376C366.681 651.248 366.521 651.12 366.361 650.992C366.169 650.832 365.993 650.688 365.833 650.56C365.673 650.432 365.529 650.288 365.401 650.128C365.241 649.968 365.097 649.808 364.969 649.648C364.841 649.488 364.713 649.344 364.585 649.216L364.009 648.592L354.793 638.944L354.937 648.592V649.024C354.937 649.152 354.921 649.296 354.889 649.456C354.857 649.584 354.825 649.728 354.793 649.888C354.697 650.304 354.585 650.672 354.457 650.992C354.393 651.184 354.297 651.344 354.169 651.472C354.073 651.6 353.961 651.728 353.833 651.856C353.481 652.176 353.065 652.352 352.585 652.384C352.105 652.544 351.657 652.592 351.241 652.528C350.857 652.496 350.457 652.384 350.041 652.192C349.721 652 349.433 651.68 349.177 651.232C349.113 651.104 349.065 651.024 349.033 650.992C349.033 650.96 349.001 650.848 348.937 650.656C348.745 650.336 348.649 650.016 348.649 649.696C348.617 649.504 348.585 649.328 348.553 649.168C348.553 649.008 348.537 648.832 348.505 648.64C348.473 648.512 348.457 648.384 348.457 648.256C348.457 648.128 348.457 648 348.457 647.872C348.489 647.712 348.505 647.584 348.505 647.488C348.505 647.36 348.505 647.216 348.505 647.056L348.457 643.264L348.409 636.208C348.409 634.16 348.361 631.952 348.265 629.584C348.233 628.432 348.217 627.408 348.217 626.512C348.217 625.616 348.233 624.608 348.265 623.488V623.296C348.329 622.944 348.361 622.608 348.361 622.288C348.361 621.936 348.377 621.6 348.409 621.28C348.409 620.64 348.553 620 348.841 619.36C349.033 618.88 349.369 618.496 349.849 618.208C350.105 618.048 350.345 617.952 350.569 617.92C350.825 617.856 351.097 617.792 351.385 617.728C351.609 617.728 351.817 617.744 352.009 617.776C352.233 617.808 352.441 617.84 352.633 617.872C353.049 617.936 353.433 618.112 353.785 618.4C353.881 618.496 353.961 618.608 354.025 618.736C354.121 618.864 354.201 619.024 354.265 619.216C354.425 619.472 354.537 619.84 354.601 620.32C354.633 620.512 354.649 620.704 354.649 620.896C354.681 621.088 354.697 621.296 354.697 621.52V623.488L354.745 629.344C355.257 628.896 355.753 628.432 356.233 627.952C356.745 627.472 357.241 626.96 357.721 626.416C358.585 625.52 359.433 624.656 360.265 623.824C361.129 622.96 361.993 622.112 362.857 621.28L363.001 621.136C363.257 620.88 363.513 620.64 363.769 620.416C364.057 620.16 364.329 619.92 364.585 619.696C365.065 619.152 365.657 618.768 366.361 618.544C366.809 618.256 367.337 618.144 367.945 618.208C368.233 618.24 368.489 618.304 368.713 618.4C368.969 618.496 369.209 618.624 369.433 618.784C369.593 618.944 369.753 619.088 369.913 619.216C370.073 619.312 370.201 619.44 370.297 619.6C370.553 619.824 370.713 620.16 370.777 620.608C370.777 620.96 370.713 621.28 370.585 621.568C370.489 621.728 370.393 621.888 370.297 622.048C370.201 622.208 370.089 622.368 369.961 622.528C369.801 622.72 369.657 622.896 369.529 623.056C369.401 623.216 369.257 623.376 369.097 623.536C368.969 623.696 368.825 623.84 368.665 623.968C368.537 624.096 368.409 624.24 368.281 624.4L367.657 625.024L358.681 634.192C359.161 634.672 359.657 635.184 360.169 635.728C360.713 636.24 361.225 636.752 361.705 637.264C362.185 637.744 362.633 638.208 363.049 638.656C363.465 639.072 363.817 639.424 364.105 639.712C364.969 640.608 365.801 641.504 366.601 642.4C367.401 643.264 368.185 644.144 368.953 645.04L369.097 645.184C369.353 645.44 369.593 645.712 369.817 646C370.041 646.256 370.249 646.512 370.441 646.768C370.921 647.312 371.257 647.904 371.449 648.544ZM397.721 648.352C397.785 648.512 397.817 648.752 397.817 649.072C397.817 649.36 397.817 649.6 397.817 649.792C397.817 650.048 397.769 650.288 397.673 650.512C397.577 650.736 397.449 650.944 397.289 651.136C397.001 651.52 396.585 651.808 396.041 652C395.273 652.256 394.553 652.384 393.881 652.384C393.529 652.416 393.161 652.432 392.777 652.432C392.393 652.432 392.009 652.464 391.625 652.528H391.433C388.969 652.56 386.425 652.56 383.801 652.528C383.161 652.496 382.441 652.496 381.641 652.528C380.841 652.592 380.057 652.576 379.289 652.48C378.521 652.416 377.817 652.24 377.177 651.952C376.569 651.632 376.137 651.136 375.881 650.464C375.817 650.304 375.769 650.16 375.737 650.032C375.705 649.872 375.689 649.712 375.689 649.552C375.561 648.464 375.513 647.392 375.545 646.336C375.577 645.28 375.593 644.24 375.593 643.216L375.689 636.256V629.824C375.689 628.672 375.689 627.648 375.689 626.752C375.721 625.856 375.753 624.864 375.785 623.776V623.536C375.817 623.216 375.833 622.896 375.833 622.576C375.865 622.256 375.881 621.936 375.881 621.616C375.945 620.88 376.121 620.256 376.409 619.744C376.601 619.264 376.937 618.88 377.417 618.592C377.833 618.304 378.329 618.16 378.905 618.16C379.129 618.16 379.337 618.176 379.529 618.208C379.753 618.208 379.961 618.224 380.153 618.256C380.345 618.288 380.521 618.352 380.681 618.448C380.873 618.544 381.065 618.672 381.257 618.832C381.449 619.056 381.625 619.328 381.785 619.648C381.913 620 381.993 620.352 382.025 620.704C382.057 620.928 382.089 621.136 382.121 621.328C382.153 621.52 382.169 621.712 382.169 621.904C382.105 622.096 382.073 622.288 382.073 622.48C382.073 622.672 382.073 622.848 382.073 623.008V623.872L381.881 646.48L391.385 646.576H393.641C393.833 646.576 394.041 646.592 394.265 646.624C394.489 646.624 394.713 646.64 394.937 646.672C395.193 646.704 395.417 646.736 395.609 646.768C395.801 646.8 395.993 646.848 396.185 646.912C396.537 647.008 396.825 647.168 397.049 647.392C397.401 647.712 397.625 648.032 397.721 648.352ZM408.23 623.776L408.134 631.312H410.054C411.366 631.28 412.534 631.264 413.558 631.264C414.582 631.264 415.718 631.28 416.966 631.312H417.206C417.59 631.312 417.958 631.328 418.31 631.36C418.694 631.36 419.062 631.36 419.414 631.36C419.798 631.392 420.166 631.456 420.518 631.552C420.87 631.616 421.222 631.696 421.574 631.792C422.118 631.984 422.566 632.272 422.918 632.656C423.238 633.072 423.398 633.536 423.398 634.048C423.398 634.208 423.398 634.4 423.398 634.624C423.398 634.816 423.366 634.992 423.302 635.152C423.238 635.504 423.03 635.824 422.678 636.112C422.518 636.336 422.214 636.496 421.766 636.592C421.35 636.72 420.934 636.8 420.518 636.832C420.07 636.928 419.622 636.976 419.174 636.976H416.918L408.038 637.024L407.942 646.432L417.494 646.528H419.75C420.006 646.528 420.246 646.528 420.47 646.528C420.694 646.528 420.902 646.544 421.094 646.576C421.35 646.64 421.574 646.688 421.766 646.72C421.99 646.72 422.198 646.752 422.39 646.816C422.774 646.944 423.094 647.12 423.35 647.344C423.67 647.664 423.878 648 423.974 648.352C424.006 648.512 424.022 648.688 424.022 648.88C424.054 649.04 424.054 649.216 424.022 649.408C424.022 649.92 423.862 650.384 423.542 650.8C423.158 651.248 422.71 651.536 422.198 651.664C421.526 651.952 420.79 652.096 419.99 652.096C419.638 652.128 419.27 652.144 418.886 652.144C418.502 652.144 418.134 652.16 417.782 652.192H417.494C414.998 652.256 412.406 652.256 409.718 652.192C409.078 652.192 408.566 652.176 408.182 652.144C407.798 652.144 407.446 652.144 407.126 652.144C406.838 652.144 406.534 652.144 406.214 652.144C405.894 652.144 405.478 652.144 404.966 652.144C404.23 652.208 403.622 652.08 403.142 651.76C402.79 651.536 402.518 651.232 402.326 650.848C402.23 650.752 402.182 650.656 402.182 650.56C402.15 650.496 402.118 650.448 402.086 650.416C402.054 650.384 402.022 650.336 401.99 650.272C401.926 650.112 401.878 649.952 401.846 649.792C401.814 649.6 401.798 649.424 401.798 649.264C401.766 649.104 401.734 648.944 401.702 648.784C401.702 648.624 401.686 648.464 401.654 648.304V647.536C401.654 647.408 401.654 647.28 401.654 647.152C401.686 647.024 401.702 646.896 401.702 646.768V643.024L401.798 636.112V629.728C401.798 628.576 401.798 627.552 401.798 626.656C401.83 625.76 401.862 624.784 401.894 623.728V623.488C401.926 623.136 401.942 622.816 401.942 622.528C401.974 622.208 401.99 621.888 401.99 621.568C402.022 620.928 402.198 620.304 402.518 619.696C402.646 619.44 402.774 619.216 402.902 619.024C403.062 618.832 403.27 618.672 403.526 618.544C404.006 618.256 404.502 618.112 405.014 618.112C405.27 618.112 405.462 618.128 405.59 618.16V618.112C406.166 618.112 406.63 618.112 406.982 618.112C407.334 618.112 407.67 618.112 407.99 618.112C408.342 618.112 408.71 618.112 409.094 618.112C409.478 618.08 410.006 618.064 410.678 618.064C411.958 618.032 413.174 618.016 414.326 618.016C415.478 618.016 416.662 618.032 417.878 618.064H418.07C418.422 618.096 418.79 618.112 419.174 618.112C419.558 618.112 419.926 618.128 420.278 618.16C420.63 618.16 420.982 618.208 421.334 618.304C421.686 618.368 422.038 618.464 422.39 618.592C422.934 618.752 423.382 619.024 423.734 619.408C424.022 619.856 424.166 620.304 424.166 620.752C424.166 620.944 424.166 621.136 424.166 621.328C424.166 621.488 424.134 621.648 424.07 621.808C424.038 622.128 423.846 622.464 423.494 622.816C423.366 622.88 423.222 622.96 423.062 623.056C422.934 623.152 422.774 623.232 422.582 623.296C422.39 623.36 422.182 623.408 421.958 623.44C421.766 623.44 421.574 623.456 421.382 623.488C421.126 623.552 420.886 623.584 420.662 623.584C420.47 623.584 420.246 623.584 419.99 623.584H417.83L408.23 623.632V623.776ZM452.862 638.032C453.022 638.48 453.134 638.992 453.198 639.568C453.294 640.112 453.342 640.672 453.342 641.248C453.342 641.824 453.294 642.4 453.198 642.976C453.134 643.52 453.038 644 452.91 644.416C452.398 646.208 451.374 647.712 449.838 648.928C448.302 650.112 446.542 650.976 444.558 651.52C442.606 652.064 440.574 652.256 438.462 652.096C436.382 651.936 434.526 651.408 432.894 650.512C431.87 649.936 430.99 649.232 430.254 648.4C429.518 647.568 428.894 646.64 428.382 645.616C428.19 645.264 428.062 644.864 427.998 644.416C427.966 643.936 428.014 643.488 428.142 643.072C428.27 642.624 428.478 642.24 428.766 641.92C429.054 641.568 429.454 641.328 429.966 641.2C430.286 641.136 430.638 641.104 431.022 641.104C431.438 641.104 431.838 641.168 432.222 641.296C432.606 641.392 432.958 641.568 433.278 641.824C433.598 642.048 433.854 642.368 434.046 642.784C434.398 643.456 434.894 644.08 435.534 644.656C436.206 645.2 436.91 645.648 437.646 646C438.702 646.352 439.758 646.496 440.814 646.432C441.902 646.368 442.878 646.128 443.742 645.712C444.638 645.296 445.358 644.736 445.902 644.032C446.446 643.296 446.718 642.464 446.718 641.536C446.718 640.768 446.606 640.144 446.382 639.664C446.158 639.152 445.838 638.736 445.422 638.416C445.038 638.064 444.558 637.776 443.982 637.552C443.438 637.328 442.83 637.136 442.158 636.976C441.39 636.816 440.606 636.704 439.806 636.64C439.038 636.576 438.254 636.496 437.454 636.4C436.654 636.304 435.87 636.176 435.102 636.016C434.334 635.856 433.582 635.616 432.846 635.296C431.374 634.688 430.254 633.76 429.486 632.512C428.718 631.264 428.254 629.92 428.094 628.48C427.966 627.04 428.142 625.616 428.622 624.208C429.102 622.768 429.87 621.536 430.926 620.512C431.95 619.584 433.166 618.928 434.574 618.544C436.014 618.128 437.598 617.888 439.326 617.824C440.286 617.792 441.246 617.824 442.206 617.92C443.198 618.016 444.142 618.176 445.038 618.4C445.966 618.624 446.814 618.912 447.582 619.264C448.382 619.616 449.07 620.032 449.646 620.512C450.062 620.832 450.478 621.264 450.894 621.808C451.31 622.32 451.63 622.88 451.854 623.488C452.078 624.064 452.142 624.624 452.046 625.168C451.982 625.712 451.646 626.176 451.038 626.56C450.526 626.88 450.03 627.024 449.55 626.992C449.102 626.928 448.67 626.784 448.254 626.56C447.838 626.304 447.438 626.016 447.054 625.696C446.67 625.376 446.318 625.088 445.998 624.832C445.134 624.192 444.062 623.76 442.782 623.536C441.502 623.312 440.302 623.264 439.182 623.392C438.478 623.488 437.822 623.648 437.214 623.872C436.606 624.096 436.078 624.4 435.63 624.784C435.214 625.168 434.878 625.648 434.622 626.224C434.398 626.768 434.318 627.392 434.382 628.096C434.414 628.608 434.558 629.04 434.814 629.392C435.102 629.744 435.438 630.032 435.822 630.256C436.238 630.48 436.686 630.656 437.166 630.784C437.646 630.912 438.126 631.008 438.606 631.072C440.046 631.264 441.486 631.408 442.926 631.504C444.366 631.6 445.774 631.92 447.15 632.464C448.558 633.008 449.758 633.744 450.75 634.672C451.742 635.6 452.446 636.72 452.862 638.032ZM482.065 638.032C482.225 638.48 482.337 638.992 482.401 639.568C482.497 640.112 482.545 640.672 482.545 641.248C482.545 641.824 482.497 642.4 482.401 642.976C482.337 643.52 482.241 644 482.113 644.416C481.601 646.208 480.577 647.712 479.041 648.928C477.505 650.112 475.745 650.976 473.761 651.52C471.809 652.064 469.777 652.256 467.665 652.096C465.585 651.936 463.729 651.408 462.097 650.512C461.073 649.936 460.193 649.232 459.457 648.4C458.721 647.568 458.097 646.64 457.585 645.616C457.393 645.264 457.265 644.864 457.201 644.416C457.169 643.936 457.217 643.488 457.345 643.072C457.473 642.624 457.681 642.24 457.969 641.92C458.257 641.568 458.657 641.328 459.169 641.2C459.489 641.136 459.841 641.104 460.225 641.104C460.641 641.104 461.041 641.168 461.425 641.296C461.809 641.392 462.161 641.568 462.481 641.824C462.801 642.048 463.057 642.368 463.249 642.784C463.601 643.456 464.097 644.08 464.737 644.656C465.409 645.2 466.113 645.648 466.849 646C467.905 646.352 468.961 646.496 470.017 646.432C471.105 646.368 472.081 646.128 472.945 645.712C473.841 645.296 474.561 644.736 475.105 644.032C475.649 643.296 475.921 642.464 475.921 641.536C475.921 640.768 475.809 640.144 475.585 639.664C475.361 639.152 475.041 638.736 474.625 638.416C474.241 638.064 473.761 637.776 473.185 637.552C472.641 637.328 472.033 637.136 471.361 636.976C470.593 636.816 469.809 636.704 469.009 636.64C468.241 636.576 467.457 636.496 466.657 636.4C465.857 636.304 465.073 636.176 464.305 636.016C463.537 635.856 462.785 635.616 462.049 635.296C460.577 634.688 459.457 633.76 458.689 632.512C457.921 631.264 457.457 629.92 457.297 628.48C457.169 627.04 457.345 625.616 457.825 624.208C458.305 622.768 459.073 621.536 460.129 620.512C461.153 619.584 462.369 618.928 463.777 618.544C465.217 618.128 466.801 617.888 468.529 617.824C469.489 617.792 470.449 617.824 471.409 617.92C472.401 618.016 473.345 618.176 474.241 618.4C475.169 618.624 476.017 618.912 476.785 619.264C477.585 619.616 478.273 620.032 478.849 620.512C479.265 620.832 479.681 621.264 480.097 621.808C480.513 622.32 480.833 622.88 481.057 623.488C481.281 624.064 481.345 624.624 481.249 625.168C481.185 625.712 480.849 626.176 480.241 626.56C479.729 626.88 479.233 627.024 478.753 626.992C478.305 626.928 477.873 626.784 477.457 626.56C477.041 626.304 476.641 626.016 476.257 625.696C475.873 625.376 475.521 625.088 475.201 624.832C474.337 624.192 473.265 623.76 471.985 623.536C470.705 623.312 469.505 623.264 468.385 623.392C467.681 623.488 467.025 623.648 466.417 623.872C465.809 624.096 465.281 624.4 464.833 624.784C464.417 625.168 464.081 625.648 463.825 626.224C463.601 626.768 463.521 627.392 463.585 628.096C463.617 628.608 463.761 629.04 464.017 629.392C464.305 629.744 464.641 630.032 465.025 630.256C465.441 630.48 465.889 630.656 466.369 630.784C466.849 630.912 467.329 631.008 467.809 631.072C469.249 631.264 470.689 631.408 472.129 631.504C473.569 631.6 474.977 631.92 476.353 632.464C477.761 633.008 478.961 633.744 479.953 634.672C480.945 635.6 481.649 636.72 482.065 638.032Z" fill="white"/>
<path d="M387.085 475.337L379.103 459.483L379.103 459.483L387.085 475.337ZM372.915 475.337L364.933 491.191L364.933 491.191L372.915 475.337ZM525 271.375C525 323.815 497.444 366.577 464.243 399.065C431.087 431.508 393.978 451.993 379.103 459.483L395.068 491.191C411.496 482.919 452.219 460.499 489.071 424.439C525.876 388.424 560.5 337.086 560.5 271.375H525ZM380 127.833C460.232 127.833 525 192.249 525 271.375H560.5C560.5 172.343 479.537 92.3333 380 92.3333V127.833ZM235 271.375C235 192.249 299.768 127.833 380 127.833V92.3333C280.464 92.3333 199.5 172.343 199.5 271.375H235ZM380.897 459.483C366.022 451.993 328.913 431.508 295.758 399.065C262.556 366.577 235 323.815 235 271.375H199.5C199.5 337.086 234.125 388.424 270.929 424.439C307.781 460.499 348.504 482.919 364.933 491.191L380.897 459.483ZM379.103 459.483C379.347 459.36 379.659 459.278 380 459.278C380.341 459.278 380.653 459.36 380.897 459.483L364.933 491.191C374.433 495.974 385.567 495.974 395.068 491.191L379.103 459.483ZM432 271.375C432 299.598 408.87 322.75 380 322.75V358.25C428.174 358.25 467.5 319.505 467.5 271.375H432ZM380 220C408.87 220 432 243.152 432 271.375H467.5C467.5 223.245 428.174 184.5 380 184.5V220ZM328 271.375C328 243.152 351.13 220 380 220V184.5C331.826 184.5 292.5 223.245 292.5 271.375H328ZM380 322.75C351.13 322.75 328 299.598 328 271.375H292.5C292.5 319.505 331.826 358.25 380 358.25V322.75Z" fill="white"/>
<path d="M561.216 467.229C579.581 477.737 589.25 489.658 589.25 501.792C589.25 513.926 579.581 525.846 561.216 536.354C542.85 546.862 516.435 555.589 484.625 561.656C452.815 567.723 416.731 570.917 380 570.917C343.269 570.917 307.185 567.723 275.375 561.656C243.565 555.589 217.15 546.862 198.784 536.354C180.419 525.846 170.75 513.926 170.75 501.792C170.75 489.658 180.419 477.737 198.784 467.229" stroke="white" stroke-width="35.5" stroke-linecap="round"/>
<defs>
<linearGradient id="paint0_linear_10_144" x1="760" y1="356" x2="0" y2="356" gradientUnits="userSpaceOnUse">
<stop stop-color="#B13434"/>
<stop offset="1" stop-color="#0075FF"/>
</linearGradient>
</defs>
</svg>
